<svg width="40" height="40" viewBox="0 0 40 40" fill="none" xmlns="http://www.w3.org/2000/svg">
<path d="M12.8707 15.9293L13.9314 14.8686L12.8707 15.9293C12.8847 15.9433 12.8942 15.9611 12.8981 15.9805C12.9019 15.9999 12.9 16.02 12.8924 16.0383C12.8848 16.0565 12.872 16.0722 12.8556 16.0831C12.8391 16.0941 12.8198 16.1 12.8 16.1C12.7735 16.1 12.7481 16.0895 12.7293 16.0707C12.7105 16.052 12.7 16.0265 12.7 16C12.7 15.9802 12.7059 15.9609 12.7169 15.9444C12.7278 15.928 12.7435 15.9152 12.7617 15.9076L12.1877 14.5218L12.7617 15.9076C12.78 15.9 12.8001 15.8981 12.8195 15.9019C12.8389 15.9058 12.8567 15.9153 12.8707 15.9293ZM27.1444 15.9169C27.1609 15.9059 27.1802 15.9 27.2 15.9C27.2265 15.9 27.252 15.9105 27.2707 15.9293C27.2895 15.948 27.3 15.9735 27.3 16C27.3 16.0198 27.2941 16.0391 27.2832 16.0556C27.2722 16.072 27.2565 16.0848 27.2383 16.0924C27.22 16.1 27.1999 16.1019 27.1805 16.0981C27.1611 16.0942 27.1433 16.0847 27.1293 16.0707C27.1153 16.0567 27.1058 16.0389 27.1019 16.0195C27.0981 16.0001 27.1 15.98 27.1076 15.9617C27.1152 15.9435 27.128 15.9278 27.1444 15.9169Z" fill="white" stroke="white" stroke-width="3"/>
</svg>
